<?xml version="1.0" encoding="utf-8"?>
<!-- Generated by IcoMoon.io -->
<!DOCTYPE svg PUBLIC "-//W3C//DTD SVG 1.1//EN" "http://www.w3.org/Graphics/SVG/1.1/DTD/svg11.dtd">
<svg version="1.1" xmlns="http://www.w3.org/2000/svg" xmlns:xlink="http://www.w3.org/1999/xlink" width="14" height="14" viewBox="0 0 14 14">
    <path d="M10.928 5.759c0.044-0.072 0.066-0.153 0.066-0.237v-3.103c0-0.097-0.028-0.187-0.081-0.269-0.056-0.081-0.128-0.137-0.219-0.172l-2.528-0.937c-0.053-0.019-0.106-0.028-0.159-0.028-0.003 0-0.006 0-0.006 0-0.003 0-0.006 0-0.006 0-0.053 0-0.106 0.009-0.159 0.028l-2.528 0.937c-0.091 0.034-0.163 0.091-0.219 0.172s-0.081 0.169-0.081 0.269v3.103c0 0.084 0.022 0.166 0.066 0.237s0.103 0.131 0.175 0.172l2.528 1.009c0.066 0.038 0.141 0.059 0.219 0.059 0.003 0 0.006 0 0.006 0s0.006 0 0.006 0c0.078 0 0.153-0.019 0.219-0.059l2.528-1.009c0.072-0.041 0.131-0.097 0.175-0.172zM10.531 5.144l-2.534 1.125-2.538-1.125v-0.441l2.538 1.072 2.534-1.072v0.441zM10.531 3.719l-2.531 1.159-2.537-1.159v-0.491l2.537 1.069 2.534-1.084-0.003 0.506z" style="fill:#ffffff"></path>
    <path d="M6.65 8.144l-2.953-1.094c-0.062-0.022-0.122-0.034-0.184-0.034-0.003 0-0.006 0-0.009 0s-0.006 0-0.009 0c-0.062 0-0.122 0.012-0.184 0.034l-2.953 1.094c-0.106 0.041-0.191 0.106-0.256 0.2-0.069 0.094-0.1 0.2-0.1 0.312v3.619c0 0.1 0.025 0.194 0.075 0.278s0.119 0.153 0.206 0.2l2.953 1.178c0.078 0.047 0.163 0.069 0.256 0.069 0.003 0 0.006 0 0.009 0s0.006 0 0.009 0c0.094 0 0.178-0.022 0.256-0.069l2.953-1.509c0.088-0.047 0.156-0.116 0.206-0.2s0.075-0.178 0.075-0.278v-3.287c0-0.113-0.031-0.219-0.097-0.312-0.062-0.094-0.147-0.159-0.253-0.2zM6.463 11.803l-2.963 1.347-2.966-1.313v-0.516l2.966 1.25 2.963-1.284v0.516zM6.463 10.172l-2.963 1.353-2.966-1.353v-0.572l2.966 1.247 2.963-1.266v0.591z" style="fill:#ffffff"></path>
    <path d="M15.647 8.144l-2.953-1.094c-0.062-0.022-0.122-0.034-0.184-0.034-0.003 0-0.006 0-0.009 0s-0.006 0-0.009 0c-0.062 0-0.122 0.012-0.184 0.034l-2.953 1.094c-0.106 0.041-0.191 0.106-0.256 0.2s-0.097 0.197-0.097 0.312v3.619c0 0.1 0.025 0.194 0.075 0.278s0.119 0.153 0.206 0.2l2.953 1.178c0.078 0.047 0.163 0.069 0.256 0.069 0.003 0 0.006 0 0.009 0s0.006 0 0.009 0c0.094 0 0.178-0.022 0.256-0.069l2.953-1.509c0.088-0.047 0.156-0.116 0.206-0.2s0.075-0.178 0.075-0.278v-3.287c0-0.113-0.031-0.219-0.097-0.312s-0.15-0.159-0.256-0.2zM15.462 11.803l-2.963 1.347-2.966-1.313v-0.516l2.966 1.25 2.963-1.284v0.516zM15.462 10.172l-2.963 1.353-2.966-1.353v-0.572l2.966 1.247 2.963-1.266v0.591z" style="fill:#ffffff"></path>
</svg>
