<?xml version="1.0" encoding="UTF-8" standalone="no"?>
<svg
   xmlns:dc="http://purl.org/dc/elements/1.1/"
   xmlns:cc="http://creativecommons.org/ns#"
   xmlns:rdf="http://www.w3.org/1999/02/22-rdf-syntax-ns#"
   xmlns:svg="http://www.w3.org/2000/svg"
   xmlns="http://www.w3.org/2000/svg"
   xmlns:sodipodi="http://sodipodi.sourceforge.net/DTD/sodipodi-0.dtd"
   xmlns:inkscape="http://www.inkscape.org/namespaces/inkscape"
   id="icon"
   viewBox="0 0 13 13"
   version="1.1"
   sodipodi:docname="pluginIcon13x13.svg"
   width="13"
   height="13"
   inkscape:version="0.92.4 (5da689c313, 2019-01-14)">
  <metadata
     id="metadata283">
    <rdf:RDF>
      <cc:Work
         rdf:about="">
        <dc:format>image/svg+xml</dc:format>
        <dc:type
           rdf:resource="http://purl.org/dc/dcmitype/StillImage" />
        <dc:title>plugin_icons_0918_RGB_openshift_color</dc:title>
      </cc:Work>
    </rdf:RDF>
  </metadata>
  <sodipodi:namedview
     pagecolor="#ffffff"
     bordercolor="#666666"
     borderopacity="1"
     objecttolerance="10"
     gridtolerance="10"
     guidetolerance="10"
     inkscape:pageopacity="0"
     inkscape:pageshadow="2"
     inkscape:window-width="1920"
     inkscape:window-height="1001"
     id="namedview281"
     showgrid="false"
     inkscape:zoom="8.08"
     inkscape:cx="50"
     inkscape:cy="50"
     inkscape:window-x="-9"
     inkscape:window-y="-9"
     inkscape:window-maximized="1"
     inkscape:current-layer="icon" />
  <defs
     id="defs236">
    <style
       id="style234">.cls-1{fill:#d71e00;}.cls-2{fill:#c21a00;}.cls-3{fill:#fff;}.cls-4{fill:#c3c3c3;}.cls-5{fill:#d5d5d5;}</style>
  </defs>
  <title
     id="title238">plugin_icons_0918_RGB_openshift_color</title>
  <circle
     class="cls-1"
     cx="6.5"
     cy="6.5"
     id="circle240"
     style="fill:#d71e00;stroke-width:0.13000001"
     r="6.5" />
  <path
     class="cls-2"
     d="M 11.096807,1.899575 A 6.5008622,6.5008733 0 0 1 1.9032,11.093198 Z"
     id="path242"
     inkscape:connector-curvature="0"
     style="fill:#c21a00;stroke-width:0.13000022" />
  <path
     class="cls-3"
     d="M 7.6427023,4.231506 A 2.4985971,2.4985947 0 0 1 8.3733015,4.751504 L 9.7278999,4.258805 A 3.8700956,3.8700917 0 0 0 2.718308,6.8107 L 4.0729064,6.318001 A 2.5076971,2.5076946 0 0 1 7.6427023,4.231506"
     id="path244"
     inkscape:connector-curvature="0"
     style="fill:#ffffff;stroke-width:0.12999979" />
  <path
     class="cls-3"
     d="M 3.4736,7.2163 2.1879,7.6856 A 3.9065,3.9065 0 0 0 2.7924,8.996 L 4.1431,8.5046 A 2.5402,2.5402 0 0 1 3.4736,7.2163"
     id="path246"
     inkscape:connector-curvature="0"
     style="fill:#ffffff;stroke-width:0.13000001" />
  <path
     class="cls-3"
     d="m 9.4198,5.0531 -1.287,0.468 A 2.5207,2.5207 0 0 1 8.45,6.9381 L 9.802,6.4467 A 3.9286,3.9286 0 0 0 9.4224,5.0531"
     id="path248"
     inkscape:connector-curvature="0"
     style="fill:#ffffff;stroke-width:0.13000001" />
  <path
     class="cls-4"
     d="m 4.6319,6.3843 a 2.1112,2.1112 0 0 1 0,-0.2717 L 3.2825,6.6053 c 0.0065,0.0871 0.0182,0.1729 0.0312,0.26 z"
     id="path250"
     inkscape:connector-curvature="0"
     style="fill:#c3c3c3;stroke-width:0.13000001" />
  <path
     class="cls-5"
     d="m 4.6306,6.266 c 0,-0.052 0,-0.1027 0.0065,-0.1534 C 4.6332,6.1633 4.6306,6.214 4.6306,6.266 Z"
     id="path252"
     inkscape:connector-curvature="0"
     style="fill:#d5d5d5;stroke-width:0.13000001" />
  <path
     class="cls-5"
     d="m 4.6306,6.3206 c 0,0.0208 0,0.0429 0,0.0637 L 3.3137,6.864 C 3.3007,6.7782 3.289,6.6924 3.2825,6.604 a 3.965,3.965 0 0 0 0.1066,0.6422 l 1.287,-0.468 A 2.5779,2.5779 0 0 1 4.6306,6.3206 Z"
     id="path254"
     inkscape:connector-curvature="0"
     style="fill:#d5d5d5;stroke-width:0.13000001" />
  <path
     class="cls-4"
     d="M 10.4247,4.2588 C 10.3831,4.1899 10.3389,4.121 10.2947,4.0547 L 8.9375,4.55 A 2.3205,2.3205 0 0 1 9.1,4.7398 Z"
     id="path256"
     inkscape:connector-curvature="0"
     style="fill:#c3c3c3;stroke-width:0.13000001" />
  <path
     class="cls-5"
     d="M 10.4234,4.2588 9.1,4.7398 A 2.73,2.73 0 0 1 9.3314,5.083 L 10.6171,4.615 A 3.8116,3.8116 0 0 0 10.4234,4.2588 Z"
     id="path258"
     inkscape:connector-curvature="0"
     style="fill:#d5d5d5;stroke-width:0.13000001" />
  <path
     class="cls-5"
     d="M 8.9375,4.55 10.2908,4.0573 Z"
     id="path260"
     inkscape:connector-curvature="0"
     style="fill:#d5d5d5;stroke-width:0.13000001" />
  <path
     class="cls-5"
     d="M 3.4307,8.7646 A 3.8869889,3.887 0 0 0 3.769999,9.1819 L 5.2415948,8.6463 A 2.5128928,2.5129 0 0 1 4.7774961,8.2719 Z M 10.43768,6.214 9.0856838,6.7054 A 2.4699929,2.47 0 0 1 8.9699841,7.2878 L 10.44158,6.7509 a 3.8999888,3.9 0 0 0 0,-0.5369"
     id="path262"
     inkscape:connector-curvature="0"
     style="fill:#d5d5d5;stroke-width:0.12999982" />
  <path
     class="cls-3"
     d="m 8.97,7.287799 c 0.013,-0.0377 0.0234,-0.0754 0.0338,-0.1131 A 2.47,2.4699943 0 0 1 8.8569,7.575098 2.5168,2.5167942 0 0 1 5.5133,8.791895 2.3959,2.3958945 0 0 1 5.2143,8.622896 l 0.0312,0.0234 -1.469,0.535598 a 3.8337,3.8336912 0 0 0 1.17,0.841099 3.8792,3.8791911 0 0 0 5.148,-1.874596 3.8337,3.8336912 0 0 0 0.3523,-1.397497 z"
     id="path264"
     inkscape:connector-curvature="0"
     style="fill:#ffffff;stroke-width:0.12999986" />
  <path
     class="cls-3"
     d="M 3.5893,8.97 C 3.5347,8.9037 3.4814,8.84 3.4307,8.7646 3.4814,8.84 3.5347,8.9037 3.5893,8.97 Z"
     id="path266"
     inkscape:connector-curvature="0"
     style="fill:#ffffff;stroke-width:0.13000001" />
  <path
     class="cls-3"
     d="m 10.4377,6.214 c 0,0.0871 0.0104,0.1729 0.0117,0.26 -0.0013,-0.0871 -0.0052,-0.1742 -0.0117,-0.26 z"
     id="path268"
     inkscape:connector-curvature="0"
     style="fill:#ffffff;stroke-width:0.13000001" />
  <path
     class="cls-3"
     d="M 3.77,9.1676 C 3.7232,9.1195 3.679,9.0688 3.64,9.0168 3.6725,9.0688 3.7167,9.1195 3.77,9.1676 Z"
     id="path270"
     inkscape:connector-curvature="0"
     style="fill:#ffffff;stroke-width:0.13000001" />
  <path
     class="cls-3"
     d="M 9.0194,7.1201 C 9.0324,7.0655 9.0441,7.0096 9.0545,6.9537 9.0441,7.0096 9.0324,7.0655 9.0194,7.1201 Z"
     id="path272"
     inkscape:connector-curvature="0"
     style="fill:#ffffff;stroke-width:0.13000001" />
  <path
     class="cls-3"
     d="m 10.4429,6.7379 c 0,-0.0715 0,-0.143 0,-0.2145 0.0051,0.0715 0.0038,0.143 0,0.2145 z"
     id="path274"
     inkscape:connector-curvature="0"
     style="fill:#ffffff;stroke-width:0.12905395" />
  <path
     class="cls-3"
     d="M 5.0349,8.4955 4.9816,8.45 Z"
     id="path276"
     inkscape:connector-curvature="0"
     style="fill:#ffffff;stroke-width:0.13000001" />
  <path
     class="cls-3"
     d="M 9.0636,6.8978 C 9.0727,6.8341 9.0818,6.7678 9.0857,6.708 9.0818,6.7704 9.0727,6.8341 9.0636,6.8978 Z"
     id="path278"
     inkscape:connector-curvature="0"
     style="fill:#ffffff;stroke-width:0.13000001" />
</svg>
