<?xml version="1.0" encoding="UTF-8" standalone="no"?>
<svg
   height="32"
   viewBox="0 0 32 32"
   width="32"
   version="1.1"
   id="svg12"
   sodipodi:docname="helm32.svg"
   inkscape:version="1.3.2 (091e20e, 2023-11-25)"
   xmlns:inkscape="http://www.inkscape.org/namespaces/inkscape"
   xmlns:sodipodi="http://sodipodi.sourceforge.net/DTD/sodipodi-0.dtd"
   xmlns="http://www.w3.org/2000/svg"
   xmlns:svg="http://www.w3.org/2000/svg">
  <defs
     id="defs12" />
  <sodipodi:namedview
     id="namedview12"
     pagecolor="#ffffff"
     bordercolor="#000000"
     borderopacity="0.25"
     inkscape:showpageshadow="2"
     inkscape:pageopacity="0.0"
     inkscape:pagecheckerboard="0"
     inkscape:deskcolor="#d1d1d1"
     inkscape:zoom="14.296856"
     inkscape:cx="9.4426355"
     inkscape:cy="6.5049267"
     inkscape:window-width="1728"
     inkscape:window-height="1131"
     inkscape:window-x="0"
     inkscape:window-y="44"
     inkscape:window-maximized="0"
     inkscape:current-layer="g12" />
  <mask
     id="a"
     fill="#ffffff">
    <path
       d="M 0,0 H 313.30315 V 159.86486 H 0 Z"
       fill="#ffffff"
       fill-rule="evenodd"
       id="path1" />
  </mask>
  <mask
     id="b"
     fill="#ffffff">
    <path
       d="M 0,0 H 313.30315 V 159.86486 H 0 Z"
       fill="#ffffff"
       fill-rule="evenodd"
       id="path2" />
  </mask>
  <g
     fill="none"
     fill-rule="evenodd"
     transform="matrix(0.1057808,0,0,0.0914608,-1.2353686,-4.6948599)"
     id="g12">
    <g
       id="g1"
       transform="matrix(0.97252143,0,0,1,23.000579,0.21926286)">
      <path
         d="m 11.678571,189 h 17.312606 v 26.789 H 49.906915 V 189 h 17.312606 v 75.25 H 49.906915 V 235.55469 H 28.991177 V 264.25 H 11.678571 Z m 75.402112,75.25 V 189 h 40.952667 v 16.35433 H 104.39329 V 217.595 h 20.91574 v 16.65533 h -20.91574 v 13.846 h 23.64006 V 264.25 Z m 59.935007,0 V 189 h 17.31261 v 55.384 h 23.72794 V 264.25 Z M 214.86002,189 241.75168,216.89267 268.55546,189 h 7.82143 v 75.25 H 258.9764 v -38.62832 l -17.22472,17.95965 -17.3126,-17.85933 v 38.528 h -17.4005 V 189 Z"
         fill="#0f1689"
         id="path3"
         style="stroke-width:0.935414" />
      <g
         transform="matrix(0.87499999,0,0,-1,11.92319,455)"
         id="g7">
        <g
           fill="#0f1689"
           mask="url(#a)"
           id="g6">
          <path
             d="m 203.46068,95.687543 c 6.93631,0 12.5593,-14.80922 12.5593,-33.077318 0,-18.268097 -5.62299,-33.077317 -12.5593,-33.077317 -6.93631,0 -12.55931,14.80922 -12.55931,33.077317 0,18.268098 5.62299,33.077318 12.55931,33.077318 z"
             transform="rotate(35,137.93117,151.55002)"
             id="path4" />
          <path
             d="m 30.142322,95.687543 c 6.936311,0 12.559301,-14.80922 12.559301,-33.077318 0,-18.268097 -5.62299,-33.077317 -12.559301,-33.077317 -6.93631,0 -12.559301,14.80922 -12.559301,33.077317 0,18.268098 5.622991,33.077318 12.559301,33.077318 z"
             transform="matrix(-0.81915204,0.57357644,0.57357644,0.81915204,58.084611,47.704768)"
             id="path5" />
          <path
             d="m 116.73282,66.275268 c 6.93631,0 12.5593,-14.80922 12.5593,-33.077318 0,-18.268097 -5.62299,-33.07731673 -12.55931,-33.07731673 -6.93631,0 -12.5593,14.80921973 -12.5593,33.07731673 0,18.268098 5.62299,33.077318 12.55931,33.077318 z"
             transform="matrix(-1,0,0,1,272.62852,53.670762)"
             id="path6" />
        </g>
        <path
           d="m 251.46701,173.09985 c -20.23008,-33.60997 -56.88957,-56.06791 -98.75578,-56.06791 -40.7208,0 -76.515877,21.2459 -97.058696,53.33459 m 2.198111,129.16953 c 20.840303,30.2327 55.555905,50.02659 94.860585,50.02659 39.3761,0 74.14642,-19.86588 94.97405,-50.19149"
           mask="url(#a)"
           stroke="#0f1689"
           stroke-width="20"
           id="path7" />
      </g>
      <g
         transform="matrix(0.87499999,0,0,1,11.92319,1.4460715e-7)"
         id="g11">
        <g
           fill="#0f1689"
           mask="url(#b)"
           id="g10">
          <path
             d="m 203.46068,95.687543 c 6.93631,0 12.5593,-14.80922 12.5593,-33.077318 0,-18.268097 -5.62299,-33.077317 -12.5593,-33.077317 -6.93631,0 -12.55931,14.80922 -12.55931,33.077317 0,18.268098 5.62299,33.077318 12.55931,33.077318 z"
             transform="rotate(35,141.83137,150.32029)"
             id="path8" />
          <path
             d="m 30.142322,95.687543 c 6.936311,0 12.559301,-14.80922 12.559301,-33.077318 0,-18.268097 -5.62299,-33.077317 -12.559301,-33.077317 -6.93631,0 -12.559301,14.80922 -12.559301,33.077317 0,18.268098 5.622991,33.077318 12.559301,33.077318 z"
             transform="matrix(-0.81915204,0.57357644,0.57357644,0.81915204,58.084611,45.245308)"
             id="path9" />
          <path
             d="m 116.73282,66.275268 c 6.93631,0 12.5593,-14.80922 12.5593,-33.077318 0,-18.268097 -5.62299,-33.07731673 -12.55931,-33.07731673 -6.93631,0 -12.5593,14.80921973 -12.5593,33.07731673 0,18.268098 5.62299,33.077318 12.55931,33.077318 z"
             transform="matrix(-1,0,0,1,272.62852,51.211302)"
             id="path10" />
        </g>
        <path
           d="m 251.46701,170.64039 c -20.23008,-33.60997 -56.88957,-56.06791 -98.75578,-56.06791 -40.7208,0 -76.515877,21.2459 -97.058696,53.33459 m 2.198111,129.16953 c 20.840303,30.2327 55.555905,50.02659 94.860585,50.02659 39.3761,0 74.14642,-19.86588 94.97405,-50.19149"
           mask="url(#b)"
           stroke="#0f1689"
           stroke-width="20"
           id="path11" />
      </g>
    </g>
  </g>
</svg>
